<?xml version="1.0" encoding="utf-8"?>
<!-- Generator: Adobe Illustrator 22.0.0, SVG Export Plug-In . SVG Version: 6.00 Build 0)  -->
<svg version="1.1" id="Layer_1" xmlns="http://www.w3.org/2000/svg" xmlns:xlink="http://www.w3.org/1999/xlink" x="0px" y="0px"
	 viewBox="0 0 1003 401" style="enable-background:new 0 0 1003 401;" xml:space="preserve">
<style type="text/css">
	.st0{fill:#FFFFFF;stroke:#3088F3;stroke-width:3;stroke-miterlimit:10;}
	.st1{fill:#FFFFFF;}
	.st2{fill:#3088F3;}
	.st3{fill-rule:evenodd;clip-rule:evenodd;fill:#FFFFFF;stroke:#3088F3;stroke-width:2;stroke-miterlimit:10;}
	.st4{fill:#FFFFFF;stroke:#3088F3;stroke-miterlimit:10;}
	.st5{fill:none;stroke:#3088F3;stroke-width:3;stroke-miterlimit:10;}
	.st6{fill:none;stroke:#3088F3;stroke-width:2;stroke-miterlimit:10;}
</style>
<g id="Mouse">
	<path class="st0" d="M1003,399.5h-77.8c0-21.8,17.4-39.5,38.9-39.5C985.6,360,1003,377.7,1003,399.5z"/>
	<line class="st0" x1="964.1" y1="361.1" x2="964.1" y2="370.9"/>
</g>
<g id="Desktop">
	<g>
		<path class="st1" d="M334.5,399.5c-4.9,0-8.8-4-8.8-8.8v-8.9c0-4.9,4-8.8,8.8-8.8h183.6c4.9,0,8.8,4,8.8,8.8v8.9
			c0,4.9-4,8.8-8.8,8.8H334.5z"/>
		<path class="st2" d="M518.2,374.4c4,0,7.3,3.3,7.3,7.3v8.9c0,4-3.3,7.3-7.3,7.3H334.5c-4,0-7.3-3.3-7.3-7.3v-8.9
			c0-4,3.3-7.3,7.3-7.3H518.2 M518.2,371.4H334.5c-5.7,0-10.3,4.6-10.3,10.3v8.9c0,5.7,4.6,10.3,10.3,10.3h183.6
			c5.7,0,10.3-4.6,10.3-10.3v-8.9C528.5,376,523.9,371.4,518.2,371.4L518.2,371.4z"/>
	</g>
	<path class="st0" d="M381.7,372.2c14.1-13.8,9.7-63.6,9.7-63.6h69.8c0,0-4.3,49.8,9.7,63.6"/>
	<g>
		<path class="st1" d="M222.7,310c-12.1,0-22-9.9-22-22V30.5c0-12.1,9.9-22,22-22H630c12.1,0,22,9.9,22,22V288c0,12.1-9.9,22-22,22
			H222.7z"/>
		<path class="st2" d="M630,10c11.3,0,20.5,9.2,20.5,20.5V288c0,11.3-9.2,20.5-20.5,20.5H222.7c-11.3,0-20.5-9.2-20.5-20.5V30.5
			c0-11.3,9.2-20.5,20.5-20.5H630 M630,7H222.7c-13,0-23.5,10.5-23.5,23.5V288c0,13,10.5,23.5,23.5,23.5H630
			c13,0,23.5-10.5,23.5-23.5V30.5C653.5,17.5,643,7,630,7L630,7z"/>
	</g>
	<g>
		<path class="st1" d="M236.9,274.5c-2.3,0-4.2-1.9-4.2-4.2V48.2c0-2.3,1.9-4.2,4.2-4.2h379c2.3,0,4.2,1.9,4.2,4.2v222.2
			c0,2.3-1.9,4.2-4.2,4.2H236.9z"/>
		<path class="st2" d="M615.9,45.5c1.5,0,2.7,1.2,2.7,2.7v222.2c0,1.5-1.2,2.7-2.7,2.7h-379c-1.5,0-2.7-1.2-2.7-2.7V48.2
			c0-1.5,1.2-2.7,2.7-2.7H615.9 M615.9,42.5h-379c-3.1,0-5.7,2.5-5.7,5.7v222.2c0,3.1,2.5,5.7,5.7,5.7h379c3.1,0,5.7-2.5,5.7-5.7
			V48.2C621.5,45.1,619,42.5,615.9,42.5L615.9,42.5z"/>
	</g>
	<g>
		<ellipse class="st0" cx="426.4" cy="159.3" rx="72.2" ry="67.7"/>
		<path class="st3" d="M436.3,133.6l-10.9,53.5c-0.4,1.8-2.2,3-4,2.6l0,0c-1.8-0.4-3-2.2-2.6-4l10.9-53.5c0.4-1.8,2.2-3,4-2.6l0,0
			C435.5,130,436.7,131.8,436.3,133.6z"/>
		<path class="st3" d="M443,179.6c-1.2,1-1.2,2.7,0,3.7l0.1,0.1c1.2,1,3.1,1,4.4,0l21.1-18.2l0.6-0.5c0.5-0.5,0.8-1,0.9-1.6
			c0-0.1,0-0.3,0-0.4c-0.1-0.6-0.4-1.2-0.9-1.6l-21.7-18.7c-1.2-1-3.2-1-4.4,0l-0.1,0.1c-1.2,1-1.2,2.7,0,3.7l19.4,16.7L443,179.6z"
			/>
		<path class="st3" d="M410.8,180.7c1.2,1,1.2,2.7,0,3.7l-0.1,0.1c-1.2,1-3.1,1-4.4,0l-21.1-18.2l-0.6-0.5c-0.5-0.5-0.8-1-0.9-1.6
			c0-0.1,0-0.3,0-0.4c0.1-0.6,0.4-1.2,0.9-1.6l21.7-18.7c1.2-1,3.2-1,4.4,0l0.1,0.1c1.2,1,1.2,2.7,0,3.7L391.5,164L410.8,180.7z"/>
	</g>
	<g>
		<ellipse class="st1" cx="426.4" cy="292.7" rx="10.4" ry="9.6"/>
		<path class="st2" d="M426.4,284.6c4.9,0,8.9,3.6,8.9,8.1s-4,8.1-8.9,8.1c-4.9,0-8.9-3.6-8.9-8.1S421.5,284.6,426.4,284.6
			 M426.4,281.6c-6.5,0-11.9,5-11.9,11.1s5.3,11.1,11.9,11.1s11.9-5,11.9-11.1S432.9,281.6,426.4,281.6L426.4,281.6z"/>
	</g>
</g>
<g id="Tablet">
	<path class="st0" d="M263,399.9H124.1c-3.1,0-5.7-2.5-5.7-5.7V209.9c0-3.1,2.5-5.7,5.7-5.7H263c3.1,0,5.7,2.5,5.7,5.7v184.4
		C268.7,397.4,266.1,399.9,263,399.9z"/>
	<path class="st0" d="M254.2,379.1H132.9c-1.9,0-3.4-1.5-3.4-3.4v-150c0-1.9,1.5-3.4,3.4-3.4h121.3c1.9,0,3.4,1.5,3.4,3.4v150
		C257.6,377.6,256.1,379.1,254.2,379.1z"/>
	<ellipse class="st4" cx="193.6" cy="388.1" rx="3.4" ry="3.5"/>
	<ellipse class="st4" cx="193.6" cy="212.6" rx="1.4" ry="1.4"/>
</g>
<g id="Laptop">
	<path class="st0" d="M731.7,384.9h179.4v7.7c0,0-1.1,7.7-6.5,7.7c-5.5,0-172.4,0-172.4,0h0.1c0,0-165.4,0-170.8,0s-6.5-7.7-6.5-7.7
		v-7.7h177.8"/>
	<path class="st0" d="M762.2,386c0,0,0,4.6-7.6,4.6s-21.6,0-21.6,0s-14.1,0-21.6,0c-7.6,0-7.6-4.6-7.6-4.6"/>
	<g>
		<path class="st1" d="M584.8,383.9c-8.9,0-16.1-7.2-16.1-16.1V196.3c0-8.9,7.2-16.1,16.1-16.1h296.4c8.9,0,16.1,7.2,16.1,16.1
			v171.5c0,8.9-7.2,16.1-16.1,16.1H584.8z"/>
		<path class="st2" d="M881.2,181.7c8,0,14.6,6.5,14.6,14.6v171.5c0,8-6.5,14.6-14.6,14.6H584.8c-8,0-14.6-6.5-14.6-14.6V196.3
			c0-8,6.5-14.6,14.6-14.6H881.2 M881.2,178.7H584.8c-9.7,0-17.6,7.9-17.6,17.6v171.5c0,9.7,7.9,17.6,17.6,17.6h296.4
			c9.7,0,17.6-7.9,17.6-17.6V196.3C898.8,186.6,890.9,178.7,881.2,178.7L881.2,178.7z"/>
	</g>
	<g>
		<path class="st1" d="M591.3,360.4c-1.7,0-3.1-1.4-3.1-3.1V202.9c0-1.7,1.4-3.1,3.1-3.1h283.4c1.7,0,3.1,1.4,3.1,3.1v154.4
			c0,1.7-1.4,3.1-3.1,3.1H591.3z"/>
		<path class="st2" d="M874.7,201.3c0.9,0,1.6,0.7,1.6,1.6v154.4c0,0.9-0.7,1.6-1.6,1.6H591.3c-0.9,0-1.6-0.7-1.6-1.6V202.9
			c0-0.9,0.7-1.6,1.6-1.6H874.7 M874.7,198.3H591.3c-2.5,0-4.6,2.1-4.6,4.6v154.4c0,2.5,2.1,4.6,4.6,4.6h283.4
			c2.5,0,4.6-2.1,4.6-4.6V202.9C879.3,200.3,877.3,198.3,874.7,198.3L874.7,198.3z"/>
	</g>
</g>
<g id="Coffee">
	<path class="st0" d="M6,388.7c0,6.1,4.4,11.1,9.9,11.1H78c5.5,0,9.9-5,9.9-11.1v-81.9H6V388.7z"/>
	<path class="st5" d="M101.3,353.3c0-7.7-5.5-14.1-12.7-15.1v30.2C95.8,367.4,101.3,361.1,101.3,353.3z"/>
	<path class="st5" d="M109,353.3c0-12.4-8.9-22.7-20.4-24.3v48.6C100.1,376,109,365.8,109,353.3z"/>
	<path class="st6" d="M64.7,351H51.3c-0.7,0-1.3-0.6-1.3-1.3v-18.2c0-0.7,0.6-1.3,1.3-1.3h13.4c0.7,0,1.3,0.6,1.3,1.3v18.2
		C66,350.4,65.4,351,64.7,351z"/>
	<path class="st6" d="M38.7,307.2c0,0,22.7-18,20,22.2"/>
</g>
</svg>
