<?xml version="1.0" encoding="utf-8"?>
<!-- Generator: Adobe Illustrator 22.0.0, SVG Export Plug-In . SVG Version: 6.00 Build 0)  -->
<svg version="1.1" id="Layer_1" xmlns="http://www.w3.org/2000/svg" xmlns:xlink="http://www.w3.org/1999/xlink" x="0px" y="0px"
	 viewBox="0 0 100 100" style="enable-background:new 0 0 100 100;" xml:space="preserve">
<style type="text/css">
	.st0{fill:#3088F3;}
	.st1{fill:#FFFFFF;}
</style>
<circle class="st0" cx="50" cy="50" r="49"/>
<g>
	<path class="st1" d="M34.8,22.5h14.5c3.8,0,7,0.4,9.7,1.1c2.7,0.7,5.2,2,7.4,3.9c5.7,4.9,8.6,12.4,8.6,22.4c0,3.3-0.3,6.3-0.9,9.1
		c-0.6,2.7-1.5,5.2-2.7,7.4c-1.2,2.2-2.7,4.2-4.6,5.9c-1.5,1.3-3.1,2.4-4.8,3.2s-3.6,1.4-5.7,1.7c-2,0.3-4.3,0.5-6.8,0.5H35
		c-2,0-3.6-0.3-4.6-0.9c-1-0.6-1.7-1.5-2-2.6c-0.3-1.1-0.5-2.6-0.5-4.3V29.3c0-2.4,0.5-4.1,1.6-5.2C30.7,23,32.4,22.5,34.8,22.5z
		 M39.1,31.3v37.4h8.5c1.9,0,3.3-0.1,4.4-0.2c1.1-0.1,2.1-0.4,3.3-0.8c1.1-0.4,2.1-1,2.9-1.7c3.7-3.2,5.6-8.6,5.6-16.3
		c0-5.4-0.8-9.5-2.5-12.2s-3.7-4.4-6.1-5.2s-5.3-1.1-8.7-1.1H39.1z"/>
</g>
</svg>
